<svg width="556" height="527" viewBox="0 0 556 527" fill="none" xmlns="http://www.w3.org/2000/svg">
<path d="M436 174H486C524.66 174 556 205.34 556 244V294H436V174Z" fill="#0F9D58"/>
<path d="M180 240H556V457C556 495.66 524.66 527 486 527H250C211.34 527 180 495.66 180 457V240Z" fill="#0F9D58"/>
<path d="M180 70C180 31.3401 211.34 0 250 0H410C448.66 0 480 31.3401 480 70V372C480 457.604 410.604 527 325 527H250C211.34 527 180 495.66 180 457V70Z" fill="#0F9D58"/>
<circle cx="330" cy="150" r="150" fill="#0F9D58"/>
<circle cx="360" cy="347" r="120" fill="#D9D9D9"/>
<path d="M420 150C420 199.706 379.706 240 330 240C280.294 240 240 199.706 240 150C240 100.294 280.294 60 330 60C379.706 60 420 100.294 420 150Z" fill="#D9D9D9"/>
<rect x="240" y="158" width="116" height="187" fill="#D9D9D9"/>
<path d="M436 174H486C524.66 174 556 205.34 556 244V294H436V174Z" fill="#0F9D58"/>
<path d="M180 240H556V457C556 495.66 524.66 527 486 527H250C211.34 527 180 495.66 180 457V240Z" fill="#0F9D58"/>
<path d="M180 70C180 31.3401 211.34 0 250 0H410C448.66 0 480 31.3401 480 70V372C480 457.604 410.604 527 325 527H250C211.34 527 180 495.66 180 457V70Z" fill="#0F9D58"/>
<circle cx="330" cy="150" r="150" fill="#0F9D58"/>
<circle cx="360" cy="347" r="120" fill="#D9D9D9"/>
<path d="M420 150C420 199.706 379.706 240 330 240C280.294 240 240 199.706 240 150C240 100.294 280.294 60 330 60C379.706 60 420 100.294 420 150Z" fill="#D9D9D9"/>
<rect x="240" y="158" width="116" height="187" fill="#D9D9D9"/>
<path d="M436 174H486C524.66 174 556 205.34 556 244V294H436V174Z" fill="#0F9D58"/>
<path d="M180 240H556V457C556 495.66 524.66 527 486 527H250C211.34 527 180 495.66 180 457V240Z" fill="#0F9D58"/>
<path d="M180 70C180 31.3401 211.34 0 250 0H410C448.66 0 480 31.3401 480 70V372C480 457.604 410.604 527 325 527H250C211.34 527 180 495.66 180 457V70Z" fill="#0F9D58"/>
<circle cx="330" cy="150" r="150" fill="#0F9D58"/>
<circle cx="360" cy="347" r="120" fill="white"/>
<path d="M420 150C420 199.706 379.706 240 330 240C280.294 240 240 199.706 240 150C240 100.294 280.294 60 330 60C379.706 60 420 100.294 420 150Z" fill="white"/>
<rect x="240" y="158" width="116" height="187" fill="white"/>
<circle cx="120" cy="120" r="120" transform="matrix(-1 0 0 1 240 227)" fill="white"/>
<path d="M60 148C60 197.706 100.294 238 150 238C199.706 238 240 197.706 240 148C240 98.2944 199.706 58 150 58C100.294 58 60 98.2944 60 148Z" fill="white"/>
<rect width="116" height="186" transform="matrix(-1 0 0 1 240 157)" fill="white"/>
<path d="M180 243C180 226.431 193.431 213 210 213C226.569 213 240 226.431 240 243V453H180V243Z" fill="#0F9D58"/>
<rect x="180" y="149" width="116" height="64" fill="white"/>
<path d="M253.5 186C253.5 186.995 253.83 189.98 255.825 195.727C257.411 200.298 258.33 203.485 258.913 205.982C259.15 206.999 259.33 207.49 258.673 206.095C258.015 204.7 256.53 201.4 253.703 196.977C250.875 192.555 246.75 187.11 242.975 182.737C232.868 171.031 230.505 171.17 229.673 171C227.024 170.459 230.16 178.475 233.14 186.845C235.265 192.813 239.42 201.98 242.615 208.472C247.639 218.681 251.16 222.495 252.16 222.998C252.691 223.264 252.17 220.68 250.515 216.205C244.818 200.801 240.51 196.68 238.763 194.185C237.328 192.136 241.125 198.755 249.438 213.722C253.487 221.014 257.75 227.37 259.298 229.53C259.542 229.872 253.88 220.73 246.385 210.735C241.511 204.235 239.84 202.84 239.005 202.5C238.667 202.362 239.16 204.14 241.805 209.522C244.45 214.905 249.4 224.31 252.363 229.65C255.325 234.99 256.15 235.98 256.74 236.738C257.33 237.495 257.66 237.99 256.84 236.183C254.13 230.208 251.835 225.34 250.925 223.185C247.66 215.454 245.84 211.68 245.003 209.75C244.83 209.352 244.67 211.8 245.493 216.775C247.692 230.08 250.165 238.995 250.58 240.075C251.073 241.357 251.5 242.495 251.335 242.255C247.7 236.967 247.51 229.7 245.175 223.605C243.331 218.792 243 216.175 243.083 215.585C244.121 208.161 248.83 234.47 250.245 239.488C250.314 239.734 249.84 235.865 248.015 228.888C243.91 213.195 239.835 208.34 239.585 207.092C239.372 206.028 239.5 210.945 239.5 216.72C239.5 217.05 239.5 212.1 239.5 213.015C239.5 220.86 239.17 227.505 238.588 226.342C236.924 223.023 235.34 218.52 234.088 216.502C233.954 216.288 233.67 216.99 233.668 217.493C233.657 219.602 235.33 221.49 236.495 223.493C237.821 225.771 239.33 227.99 240.495 230.075C240.83 230.66 241.16 231.32 241.413 231.99C241.665 232.66 241.83 233.32 242 234.5" stroke="white" stroke-width="2" stroke-linecap="round"/>
<path d="M259 189C260.66 189.33 262.99 190.33 265.903 192.487C272.109 197.085 274.325 203.315 275.575 205.487C277.83 209.407 270.85 194.02 265.685 189.925C263.835 193.985 263.335 201.29 262.755 207.79C262.34 210 261.68 210 260.5 209.5" stroke="white" stroke-width="10" stroke-linecap="round"/>
<path d="M259.5 231.5C258.835 231.995 258.5 233.99 257.587 236.408C257.178 237.493 257 240.64 257 243.402C257 248.967 256.17 235.51 255.917 232.677C255.721 230.474 254.84 228.51 253.837 226.59C252.773 224.551 250.84 223.01 249.422 221.007C247.885 218.836 246.34 217.01 245.255 214.925C243.784 212.099 241.67 211.505 241.5 211.002C240.553 208.204 249.79 217.47 253.242 220.658C253.893 221.258 254.65 222.15 255.075 220.842C256.556 216.286 254.51 208.705 251.525 199.985C247.656 188.683 243.335 182.505 243.002 182.002C241.35 179.505 249.95 196.59 254.905 202.74C255.506 203.486 256.32 203.66 256.907 203.17C257.495 202.68 257.99 201.36 258.08 199.855C258.269 196.697 254.695 189.72 249.95 181.06C247.289 176.203 244.845 172.855 243.59 170.347C241.241 165.654 251.15 180.14 254.82 184.402C256.323 186.148 257.495 187.495 258.162 187.997C259.71 189.163 252.54 180.54 248.097 177.507C242.694 173.819 238.02 171.18 235.755 169.75C232.698 167.82 243.61 182.27 249.152 187.157C250.056 187.954 251.31 188.65 251.987 188.415C253.658 187.835 251.185 181.375 247.692 173.97C243.058 164.143 240.505 160.84 240.415 160.83C237.289 160.483 247.13 168.635 252.63 173.137C254.423 174.605 254.5 174.01 253.592 172.6C251.098 168.724 247.515 165.345 244.687 163.017C238.658 158.054 233.505 154.505 232.92 154.58C230.705 154.864 236.635 163.45 241.715 171.197C244.017 174.708 246.155 176.155 247.657 177.41C248.35 177.988 246.835 175.005 244.605 172.11C239.111 164.978 233.18 159.845 230.52 157.682C228.014 155.645 225.84 154.34 224.84 153.587C224.558 153.376 224.5 153.99 224.912 154.905C225.962 157.234 230.3 161.47 236.785 166.96C242.604 171.886 246.495 173.995 246.42 173.59C245.709 169.752 237.385 163.38 232.027 160.175C214.562 149.727 244.16 180.16 245.077 180.912C245.397 181.174 244.505 179.01 240.785 173.715C237.693 169.314 231.62 161.82 228.642 158.405C225.665 154.99 225.83 155.98 227.565 159.377C229.3 162.775 232.6 168.55 235.537 173.257C243.629 186.225 245.33 188.99 246.495 193.482C247.213 196.251 248.16 199.81 249.412 203.072C250.551 206.039 251.16 208.82 251.747 211.405C252.869 216.34 255.49 223.12 256.082 227.655C256.522 231.017 257 233.98 257.747 235.915C258.642 238.232 253.35 230.35 251.257 227.842C248.867 224.978 247.84 223.01 246.505 221.007C244.989 218.733 242.84 216.51 241.007 215.005C239.174 213.5 238.005 212.17 237.255 211.917C237.002 211.832 237 212.49 237.247 213.075C238.463 215.949 240.99 217.99 242.162 220.24C243.853 223.483 244.83 225.49 245.912 227.908C246.799 229.887 246.83 231.99 247.415 233.993C247.981 235.93 248 238.65 248.912 240.993C249.33 241.99 249.665 242.995 249.915 244.9C250 246.31 250 248.62 250.5 251" stroke="white" stroke-width="10" stroke-linecap="round"/>
<path d="M249 214C249.165 214.165 249.33 214.33 246.94 209.465C244.55 204.6 239.6 194.7 236.885 189.023C234.17 183.345 233.84 182.19 233.587 181.843C233.327 181.484 233.66 189.925 234.907 202.248C235.404 207.155 235.99 209.29 236.327 209.735C236.937 210.539 237 200.735 237.33 191.31C237.379 189.897 242.63 199.095 249.697 212.155C255.627 223.113 260.16 228.82 261.16 230.573C261.331 230.873 260.675 228.35 259.26 225.19C258.044 222.474 254.7 212.915 251.68 206.275C251.071 204.935 255.92 218.94 258.208 225.215C260.872 232.524 261.665 233.995 261.585 234.085C261.271 234.439 260.68 232.36 258.607 227.39C256.535 222.42 253.07 213.84 251.12 208.76C249.17 203.68 248.84 202.36 249.743 203.825C250.645 205.29 252.79 209.58 255.132 215.75C257.475 221.92 259.95 229.84 260.4 232.518C261.373 238.307 255.17 223.18 252.097 217.195C251.09 215.232 250.35 212.88 250.007 212.185C249.855 211.876 250.825 215.15 252.322 218.393C253.703 221.381 255.32 228.28 257.403 236.858C258.476 241.277 258.665 243.16 258.915 243.912C258.955 244.032 259 243.51 256.607 236.82C254.215 230.13 249.43 217.26 246.965 210.383C244.5 203.505 244.5 203.01 246.067 206.385C254.936 225.48 254.665 228.995 254.915 229.498C255.135 229.941 253.68 226.19 250.03 219.143C244.004 207.507 240.835 199.34 240.42 197.928C239.353 194.295 249.49 215.14 251.743 219.735C252.19 220.648 252.33 221.32 252.167 221.165C251.212 220.254 247.7 213.555 241.462 202.748C235.568 192.534 232.84 184.855 231.757 181.028C231.285 179.358 231.17 178.19 231.332 177.595C231.495 177 231.99 177 235.875 180.548C239.76 184.095 247.02 191.19 251.172 195.34C256.233 200.398 257.495 201.83 257.997 202.165C258.485 202.49 252.71 196.385 244.56 185.748C236.425 175.13 233.34 167.015 232.587 164.848C232.362 164.197 232.99 164.33 233.905 165.075C236.265 166.996 238.985 170.645 243.545 176.453C250.754 185.633 256.825 191.82 258.487 194.315C259.288 195.516 260.15 196.48 260.74 197.238C261.33 197.995 261.66 198.49 259.272 193.3C256.885 188.11 251.77 177.22 248.887 171.28C244.696 162.642 240.68 160.01 238.507 158.92C236.142 157.733 233.51 156.34 231.67 156C231.031 155.882 234.32 156.495 240.94 157.988C246.201 159.174 255.48 160.47 260.57 161.235C265.66 162 266.32 162 266 161.67C264.666 160.295 255.74 159.01 244.41 157.51C240.344 156.972 239.68 157 240.247 157C245.994 157 252.96 158.33 263.635 160.243C264.326 160.366 254.09 160.835 244.137 160.585C243.092 160.559 250.19 160.5 253.267 160.5C255.19 160.5 249.71 162.15 241.642 165.145C230.697 169.209 228.005 169.165 227.255 169.003C224.491 168.404 229.32 162.52 231.575 160.588C232.059 160.173 232.82 160.17 233.49 160.415C235.001 160.967 235.995 164.31 238.56 174.163C240.531 181.732 244.26 194.41 246.13 201.285C248 208.16 248 208.82 247.917 208.748C244.884 206.081 244.51 198.19 242.51 190.618C241.067 185.153 238.835 182.005 239.162 182.493C239.775 183.405 240.81 185.95 245.2 193.083C249.59 200.215 257.18 211.93 261.337 218.213C265.495 224.495 265.99 224.99 266.162 224.915C266.335 224.84 266.17 224.18 262.208 217.488C258.245 210.795 250.49 198.09 245.917 190.308C241.345 182.525 240.19 180.05 242.647 185.128C245.105 190.205 251.21 202.91 255.097 211.435C258.985 219.96 260.47 223.92 261.235 226.29C262 228.66 262 229.32 260.597 226.855C256.095 218.941 252.51 210.36 250.515 205.37C248.745 200.943 246.675 196.525 245.507 193.27C245.22 192.468 245.33 193.48 247.147 199.765C248.965 206.05 252.43 217.6 254.38 224.375C256.794 232.763 257 239.615 256.917 247.613C256.883 250.999 256.335 251.995 255.837 252.91C255.582 253.381 255.01 253.66 254.507 253.912C254.005 254.165 253.51 254.33 252.842 254.003C249.665 252.444 249.34 249.51 248.337 247.425C247.103 244.858 246.17 243.01 245.917 237.272C245.793 234.447 244.67 232.51 244.085 230.507C243.512 228.544 242.34 226.18 241.005 224.007C239.745 221.957 238.67 219.68 236.675 216.678C235.23 214.503 232.68 213.01 230.092 211.173C228.204 209.832 226.01 208.84 224.007 207.92C221.938 206.969 220.01 205.84 217.677 205.085C214.019 203.901 212.005 204.5 211.42 204.253C211.177 204.15 211.66 203.51 212.325 203.255C215.769 201.934 226.91 202.5 233.075 204.573C236.793 205.823 237.49 210.65 238.995 213.408C240.249 215.706 241.33 218.65 242.33 221.075C243.261 223.334 243.33 225.49 243.915 228.07C244.519 230.734 244.165 232.995 244.497 233.415C247.034 236.619 244.67 221.69 243.092 216.108C240.749 207.815 237.67 203.02 236.67 200.093C235.934 197.937 236 196.005 235.917 195.008C235.876 194.5 235.67 194.01 235.585 195.158C234.823 205.445 237.66 214.15 238.497 217.323C238.807 218.496 239.165 219.495 239.58 220.493C240.023 221.558 240.5 214.245 240.582 202.248C240.625 195.996 241.33 192.35 241.5 188.92C241.907 180.708 240.5 205.81 240.085 210.725C239.91 212.794 240 216.1 240 217.223C240 219.134 241 212.02 241.83 199.325C242.226 193.271 242 184.02 242 184.375C242 184.73 242 194.96 242 198.498C242 203.318 240.84 189.02 239.837 184.103C239.328 181.603 237.51 174.89 236.01 166.143C235.473 163.01 235.5 162.51 236.077 166.05C237.891 177.167 239 186.32 239.165 188.898C239.322 191.355 240.165 193.49 240.58 194.495C241.013 195.544 241.5 185.405 241.83 177.46C242.032 172.602 243.83 189.155 244.33 191.235C244.55 192.149 244.5 192.82 244.83 191.758C247.335 183.693 247 179.675 247.083 178.755C247.282 176.527 246.5 186.3 245.837 192.643C244.5 200.145 244.335 205.325 244.085 206.905C244 207.66 244 208.32 244 209" stroke="white" stroke-width="10" stroke-linecap="round"/>
<path d="M305.25 195.5C305.25 195.583 305.25 195.665 305.25 202.019C305.25 208.373 305.25 220.995 305.209 224.61C305.167 228.225 305.085 222.45 304.671 217.907C304.257 213.365 303.515 210.23 303.132 208.368C302.75 206.505 302.75 206.01 305.679 208.89C308.607 211.77 314.465 218.04 317.689 221.435C320.912 224.83 321.325 225.16 321.084 225.495C320.842 225.83 319.935 226.16 319.014 226.33C318.092 226.5 317.185 226.5 316.25 226.5" stroke="white" stroke-width="10" stroke-linecap="round"/>
<path d="M243.75 190.75C243.502 191.99 243 196.475 242.792 202.046C242.663 205.515 242.75 212.035 242.791 215.516C242.842 219.84 243.415 221.16 243.541 222.661C243.649 223.941 244.165 225.41 244.291 226.496C244.419 227.593 244.665 228.745 244.999 229.746C245.402 230.955 245.333 232.33 245.458 235.264C245.568 237.865 245.5 242.735 245.5 244.5C245.5 244.78 245.583 243.003 245.708 238.42C245.826 234.086 245.75 225.67 245.585 220.881C245.338 213.7 244.17 211.925 243.917 209.966C243.607 207.558 243.25 204.765 243.042 202.178C242.884 200.196 243 202.795 242.959 200.625C242.845 194.661 242.835 178.82 242.792 170.866C242.75 162.913 242.75 163.325 242.709 163.909C242.615 165.237 242.5 167.568 242.417 171.551C242.367 173.968 242.17 177.185 242.085 178.513C242.042 179.184 242.577 175.283 243.7 169.624C244.187 167.17 244.74 165.615 244.995 165.798C246.766 167.065 245.085 170.908 244.835 172.406C244.567 174.015 244.833 164.755 244.958 163.881C245.046 163.26 244.835 166.795 244.461 172.421C244.339 174.26 244.005 174.005 243.382 172.558C240.239 165.248 239.337 163.093 239.455 162.295C239.534 161.759 241.47 163.56 243.926 164.898C249.622 167.999 253.58 169.25 253.915 169.25C254.24 169.25 252.59 169.003 248.455 167.679C244.99 166.57 238.71 164.705 235.109 163.686C231.507 162.668 230.765 162.585 232.156 162.543C233.548 162.5 237.095 162.5 242.882 163.16C248.67 163.82 256.59 165.14 260.505 166.068C264.42 166.995 264.09 167.49 263.631 167.951C262.675 168.912 260.268 170.158 257.395 171.698C253.137 173.98 248.01 176.91 246.337 177.126C244.977 177.302 248.99 173.925 250.246 172.753C250.441 172.571 250.745 172.83 251.12 178.649C251.495 184.468 251.99 195.935 252.245 201.018C252.5 206.1 252.5 204.45 252.459 203.353C252.335 201.76 252.085 200.755 251.794 199.716C251.668 199.173 251.585 198.595 251 197.5" stroke="white" stroke-width="10" stroke-linecap="round"/>
<path d="M248 249.5C248.25 248.757 248.085 246.755 247.751 245.505C247.38 244.114 247.335 242.59 247.001 241.463C246.419 239.496 246.585 236.755 246.459 232.641C246.406 230.908 246.085 229.755 245.793 226.196C245.562 223.397 245.75 218.025 245.791 215.139C245.833 212.253 245.915 212.005 245.958 209.856C246 207.707 246 203.665 246 199.5" stroke="white" stroke-width="10" stroke-linecap="round"/>
<path d="M246 199.5C246.248 200.658 246.75 202.995 246.957 204.12C247.254 205.725 247.25 206.91 247.457 208.286C247.688 209.818 247.915 211.325 248.041 212.496C248.379 215.631 248.085 221.16 247.918 222.246C247.717 223.548 247.335 225.16 247.209 230.189C246.918 231.997 246.75 235.47 246.543 239.231C246.5 240.968 246.5 244.185 246.5 247.5" stroke="white" stroke-width="10" stroke-linecap="round"/>
</svg>
